<svg xmlns="http://www.w3.org/2000/svg" xml:space="preserve" width="686.163" height="686.813" viewBox="0 0 181.547 181.719"><path d="M66.182 110.225c0-.12-.37-.582-.823-1.025l-.824-.806 1.863-4.319c9.39-21.761 11.96-38.825 7.677-50.974-1.35-3.83-3.021-6.663-5.646-9.569-.854-.946 1.237 1.018 4.648 4.364a8409 8409 0 0 0 11.23 10.994c12.696 12.4 16.073 15.777 16.39 16.392.59 1.146.678 2.456.29 4.289-1.567 7.396-10.952 17.166-24.22 25.211-4.944 2.998-10.585 5.899-10.585 5.443M45.388 84.476l-.504-.595.595.504c.56.474.716.687.504.687-.05 0-.318-.268-.595-.596m-3.97-3.968-.503-.596.595.504c.56.474.716.687.504.687-.05 0-.318-.268-.595-.595m-13.402-6.989c.182-.073.48-.073.662 0 .182.074.033.134-.331.134s-.513-.06-.33-.134m-9.326-4.322c-1.742-1.747-3.107-3.175-3.035-3.175s1.558 1.428 3.3 3.175 3.107 3.175 3.034 3.175-1.558-1.43-3.3-3.175M7.97 58.679l-3.303-3.373 3.373 3.303c1.856 1.817 3.374 3.335 3.374 3.374 0 .19-.375-.17-3.444-3.304M-2.878 48.096l-3.303-3.373 3.373 3.303C-.952 49.843.566 51.36.566 51.399c0 .19-.375-.17-3.444-3.303m-10.848-10.583-3.303-3.374 3.373 3.304c1.856 1.816 3.374 3.334 3.374 3.373 0 .19-.375-.17-3.444-3.303m78.816 2.91c-.329-.42-.32-.429.1-.1.255.2.463.408.463.463 0 .218-.217.078-.563-.363M-24.574 26.93l-3.303-3.373 3.374 3.303c3.133 3.069 3.493 3.444 3.303 3.444-.039 0-1.557-1.518-3.374-3.374m51.813-1.57c.191-.076.42-.066.507.021s-.068.15-.347.14c-.308-.013-.371-.076-.16-.16m-2.91-.529c.19-.076.419-.067.507.021s-.069.15-.347.14c-.309-.013-.371-.076-.16-.16m-1.852-.264c.19-.077.419-.067.507.02.088.089-.069.151-.348.14-.308-.013-.37-.076-.16-.16m-1.588-.265c.191-.076.42-.067.507.021s-.068.15-.347.14c-.308-.014-.371-.076-.16-.16m-2.133-.259c.182-.073.48-.073.661 0 .182.074.033.134-.33.134-.364 0-.513-.06-.331-.134m-1.852-.264c.182-.074.48-.074.661 0 .182.073.033.133-.33.133-.364 0-.513-.06-.331-.133m-2.117-.265c.182-.073.48-.073.662 0s.033.133-.331.133-.513-.06-.33-.133m-42.775-.508c.012-.308.075-.371.16-.16.076.19.067.42-.021.507s-.15-.068-.14-.347m40.394.243c.182-.073.48-.073.661 0 .182.074.033.134-.33.134-.364 0-.513-.06-.331-.134m-2.646-.264c.182-.074.48-.074.662 0 .181.073.033.133-.331.133s-.513-.06-.33-.133m-2.773-.273c.257-.067.615-.063.794.01.179.072-.032.127-.468.122s-.583-.065-.326-.132m-3.18-.263c.255-.067.671-.067.926 0 .255.066.046.12-.463.12-.51 0-.718-.054-.463-.12m-3.704-.265c.254-.067.671-.067.926 0 .254.066.046.12-.463.12-.51 0-.718-.054-.463-.12M-27.745 22c0-.055.209-.263.463-.463.42-.33.43-.32.1.1-.345.44-.563.58-.563.363m23.485-.087c.33-.064.806-.061 1.059.005s-.017.118-.599.115-.789-.057-.46-.12m-5.554-.27c.475-.058 1.19-.057 1.587.003.398.06.009.109-.864.107-.874-.001-1.199-.05-.723-.11m-8.075-.267a19 19 0 0 1 2.514 0c.69.055.125.1-1.257.1-1.383 0-1.948-.045-1.257-.1" style="fill:#fd7356" transform="translate(28.01 -21.305)"/><path d="M-26.752 202.636c.181-.073.48-.073.661 0s.033.133-.33.133c-.365 0-.513-.06-.331-.133m-1.026-.552c-.33-.42-.32-.43.1-.1.44.345.58.563.363.563-.055 0-.264-.209-.463-.463m7.045-4.565c1.157-1.164 2.164-2.116 2.236-2.116s-.814.952-1.972 2.116-2.163 2.117-2.236 2.117.815-.952 1.972-2.117m-7.19-5.688c.002-1.019.05-1.403.107-.854s.056 1.382-.002 1.852-.106.02-.104-.998m17.773-5.16c1.158-1.164 2.164-2.116 2.237-2.116s-.815.952-1.972 2.117c-1.158 1.164-2.164 2.116-2.237 2.116s.815-.952 1.972-2.116m-17.519-2.513c.002-.728.053-.994.114-.592.061.403.06.998-.003 1.323-.063.326-.113-.004-.11-.731m.25-5.424c0-.51.055-.718.121-.463.067.255.067.671 0 .926-.066.255-.12.046-.12-.463m27.853-2.91c1.157-1.165 2.163-2.117 2.236-2.117s-.815.952-1.972 2.117c-1.157 1.164-2.164 2.116-2.236 2.116s.814-.952 1.972-2.116m-27.583-1.456c.003-.582.057-.789.12-.46.064.33.062.806-.005 1.059-.066.253-.118-.016-.115-.599m.25-3.704c.005-.436.064-.583.131-.325.068.257.063.614-.01.793-.072.18-.127-.031-.121-.468m.254-3.042c0-.364.06-.513.134-.331.073.182.073.48 0 .661s-.134.033-.134-.33m37.662-2.646c1.157-1.164 2.164-2.117 2.236-2.117s-.814.953-1.972 2.117-2.163 2.116-2.236 2.116.815-.952 1.972-2.116m-37.397-.265c0-.364.06-.512.134-.33.073.181.073.479 0 .66-.074.183-.134.034-.134-.33m.265-2.646c0-.363.06-.512.133-.33.074.181.074.48 0 .661-.073.182-.133.033-.133-.33m.243-2.27c.013-.309.076-.372.16-.16.077.19.067.419-.02.507-.089.087-.151-.069-.14-.348m.265-2.117c.013-.309.075-.371.16-.16.076.19.067.419-.021.507s-.15-.068-.14-.347m.265-1.852c.012-.309.075-.371.16-.16.076.19.066.419-.022.507-.087.088-.15-.069-.138-.347m46.942-1.698c1.158-1.164 2.164-2.117 2.237-2.117s-.815.953-1.972 2.117-2.164 2.116-2.237 2.116.815-.952 1.972-2.116m-46.678-.155c.013-.308.075-.37.16-.16.076.192.067.42-.02.508-.089.088-.151-.069-.14-.348m.53-3.44c.012-.307.075-.37.16-.159.076.191.066.42-.022.507s-.15-.068-.139-.347m.264-1.587c.013-.308.075-.37.16-.16.076.192.067.42-.021.508s-.15-.069-.14-.348m78.163-40.842c-14.455-6.246-26.625-9.276-37.253-9.273-6.85.002-11.282.94-16.29 3.446-1.454.729-3.278 1.822-4.052 2.429l-1.407 1.104 1.047-1.175c.575-.646 7.402-7.685 15.17-15.641C21.766 78.064 25.473 74.425 26.26 74.11c1.486-.595 3.153-.516 5.458.258 8.722 2.927 19.588 15.044 27.587 30.761l1.658 3.258-.881.91c-.485.5-1.007.899-1.16.887s-2.422-.949-5.042-2.08m-62.838 1.474c0-.055.208-.263.463-.463.42-.33.429-.32.1.1-.346.44-.563.58-.563.363" style="fill:#0bb3fd" transform="translate(28.01 -21.305)"/><path d="M150.92 202.892c.258-.067.615-.062.794.01.18.073-.031.128-.468.122-.437-.005-.583-.064-.326-.131zm-11.233-.262c.191-.076.42-.067.507.021s-.068.15-.347.14c-.308-.013-.371-.076-.16-.16m-6.88-.264c.192-.077.42-.067.508.02.088.089-.068.151-.347.14-.309-.013-.371-.076-.16-.16m16.312-5.971-1.313-1.389 1.39 1.313c1.29 1.22 1.51 1.465 1.312 1.465-.041 0-.666-.625-1.389-1.389m-10.848-10.583-1.312-1.39 1.389 1.314c1.29 1.22 1.51 1.465 1.313 1.465-.042 0-.667-.625-1.39-1.39m-82.152-5.953-1.446-1.522 1.521 1.446c.837.796 1.522 1.48 1.522 1.522 0 .196-.253-.033-1.597-1.446m71.447-4.432c-.643-.655-1.11-1.19-1.036-1.19.072 0 .658.535 1.3 1.19.643.655 1.11 1.19 1.037 1.19s-.659-.535-1.301-1.19M45.28 169.34c-.642-.654-1.109-1.19-1.036-1.19s.658.536 1.301 1.19c.643.655 1.109 1.191 1.036 1.191s-.658-.536-1.3-1.19m71.438-4.498c-.643-.654-1.11-1.19-1.036-1.19.072 0 .658.536 1.3 1.19.643.655 1.11 1.191 1.037 1.191s-.658-.536-1.301-1.19m-82.163-6.019-1.313-1.389 1.389 1.313c1.29 1.22 1.51 1.465 1.313 1.465-.042 0-.667-.625-1.39-1.389m71.437-4.498-1.313-1.389 1.39 1.313c1.29 1.22 1.51 1.465 1.312 1.465-.042 0-.667-.625-1.389-1.389m-10.858-4.03c-8.751-1.904-21.108-15.357-29.41-32.02l-1.319-2.645.763-.62c1.16-.944 1.629-2.052 1.468-3.462l-.137-1.21 2.149-1.058c1.182-.582 3.581-1.875 5.332-2.872 14.887-8.484 25.346-18.9 27.014-26.9.431-2.067.231-3.58-.625-4.739l-.512-.692 25.413-26.055c13.977-14.33 25.681-26.203 26.009-26.385.775-.43 1.883-.029 2.176.789.21.583-.012 12.842-.352 19.517-1.714 33.65-6.555 54.753-15.726 68.554-2.414 3.634-4.004 5.376-16.938 18.562-21.932 22.36-20.567 21.037-22.028 21.35-1.505.323-1.228.332-3.277-.114m-70.979-3.841c0-.364.06-.513.134-.33.073.181.073.479 0 .66-.073.183-.134.034-.134-.33m7.632-13.89c.341-.365.68-.662.753-.662s-.147.297-.489.661-.68.662-.753.662.147-.298.489-.662m1.852-1.803c0-.046.387-.433.86-.86l.86-.777-.778.86c-.724.801-.942.981-.942.777" style="fill:#03cbd8" transform="translate(28.01 -21.305)"/><path d="M-27.621 202.008c-.468-.517-.475-.953-.167-10.782.687-21.98 2.276-37.191 5.23-50.063 3.32-14.467 7.81-24.584 14.238-32.081 2.478-2.89 5.124-4.988 8.407-6.664 5.142-2.626 9.564-3.585 16.539-3.587 10.63-.003 22.518 2.956 37.377 9.301 2.688 1.148 5.042 2.028 5.232 1.955.271-.104.282-.015.05.417-.161.303-.253 1.148-.204 1.877l.09 1.327-2.381 1.193c-9.277 4.65-17.557 10.38-23.417 16.208-5.037 5.008-8.059 9.591-8.88 13.465-.42 1.986-.292 3.16.5 4.601l.55 1-2.792 2.837c-1.535 1.56-12.526 12.837-24.424 25.06-11.898 12.224-22.148 22.732-22.778 23.35-1.304 1.28-2.365 1.475-3.17.586M44.453 83.55c-.33-.42-.32-.429.1-.1.44.346.58.563.363.563-.055 0-.263-.208-.463-.463" style="fill:#007aec" transform="translate(28.01 -21.305)"/><path d="M64.33 108.61c-.218-.146-1.034-.241-1.812-.21l-1.416.054-1.323-2.63C51.011 88.4 38.886 75.393 29.862 73.728c-1.772-.327-2.84-.18-4.236.585l-1.002.549-4.422-4.378C17.769 68.076 5.986 56.555-5.983 44.881c-23.303-22.729-22.59-21.95-21.235-23.175.49-.443 1.003-.463 7.342-.297 29.255.767 48.374 3.183 63.376 8.008 10.551 3.393 17.75 7.295 23.544 12.76 12.264 11.57 12.05 32.473-.635 61.873-1.019 2.361-1.777 4.415-1.685 4.564.208.337.113.336-.394-.004z" style="fill:#e23820" transform="translate(28.01 -21.305)"/><path d="M140.865 202.621c.402-.06.997-.059 1.323.004s-.004.113-.732.11c-.727-.001-.993-.053-.591-.113zm-7.015-.261a3.8 3.8 0 0 1 1.19 0c.328.063.06.115-.595.115s-.923-.052-.595-.115m-5.42-.261c.258-.067.615-.063.794.01.18.072-.031.127-.468.122-.436-.005-.583-.065-.325-.132zm-3.968-.265c.257-.067.615-.063.794.01s-.032.127-.468.122-.583-.065-.326-.132zm-3.842-.256c.182-.074.48-.074.662 0 .182.073.033.133-.33.133-.365 0-.513-.06-.332-.133m32.652-.354c0-.364.06-.513.134-.331.073.182.073.48 0 .661-.074.182-.134.033-.134-.33m-35.545.083c.19-.076.419-.067.507.021s-.069.15-.348.14c-.308-.013-.37-.076-.16-.16m-2.927-.259c.182-.073.48-.073.661 0 .182.074.033.134-.33.134-.364 0-.513-.06-.331-.134m-2.365-.27c.19-.076.42-.067.507.021s-.068.15-.347.14c-.308-.014-.371-.076-.16-.16m-2.381-.264c.19-.077.419-.067.507.02.088.089-.069.151-.347.14-.309-.013-.371-.076-.16-.16m-2.117-.265c.191-.076.42-.067.507.021s-.068.15-.347.139c-.308-.013-.371-.075-.16-.16m43.828-1.208-1.313-1.39 1.39 1.314c1.29 1.22 1.51 1.465 1.312 1.465-.042 0-.667-.625-1.389-1.39m-50.972.15c.191-.077.42-.067.507.02.088.089-.068.151-.347.14-.308-.013-.37-.076-.16-.16m40.258-10.601-1.447-1.522 1.522 1.447c.836.795 1.521 1.48 1.521 1.52 0 .197-.253-.032-1.596-1.445m-79.93-4.234c-.328-.42-.32-.429.1-.1.255.2.464.409.464.464 0 .217-.218.077-.563-.364m-20.707-19.918c-10.349-10.1-15.556-15.363-15.748-15.915-2.053-5.887 5.63-16.42 18.63-25.542 4.73-3.32 16.007-9.747 16.007-9.124 0 .14.376.623.835 1.072l.835.816-1.612 3.78c-7.477 17.536-10.496 30.392-9.813 41.788.393 6.55 2.431 12.766 5.516 16.826.581.764 1 1.389.933 1.389s-7.08-6.79-15.583-15.09m89.789 13.568-1.447-1.52 1.522 1.445c.837.796 1.521 1.48 1.521 1.522 0 .196-.253-.033-1.596-1.447m-10.848-10.583-1.446-1.521 1.52 1.446c.838.795 1.522 1.48 1.522 1.521 0 .197-.253-.032-1.596-1.446m-10.717-10.45-1.313-1.39 1.39 1.313c1.29 1.22 1.51 1.465 1.312 1.465-.042 0-.667-.625-1.389-1.389m-12.607-6.466c.19-.076.419-.067.507.021s-.068.15-.347.14c-.309-.013-.371-.076-.16-.16m-16.653-11.394c-.33-.42-.32-.43.1-.1.44.345.58.563.363.563-.055 0-.263-.209-.463-.463" style="fill:#03d458" transform="translate(28.01 -21.305)"/><path d="M137.62 202.526c-23.586-.934-40.87-3.285-54.447-7.406-13.746-4.172-24.39-10.914-29.06-18.406-3.202-5.138-4.644-10.972-4.627-18.725.022-10.747 3.001-22.348 9.878-38.473l1.616-3.788-.723-.67c-.894-.829-1.219-1.651-1.217-3.082.002-2.12 1.536-3.621 3.703-3.621 1.42 0 2.475.57 3.3 1.784 1.127 1.659.78 3.492-.931 4.933l-.826.694 1.77 3.345c5.241 9.907 9.854 16.438 15.863 22.465 4.063 4.074 7.778 6.806 11.119 8.176 2.498 1.024 5.315 1.103 6.858.19l1.038-.612 4.518 4.466c2.486 2.457 9.52 9.334 15.632 15.283 29.688 28.895 32.146 31.356 32.146 32.18 0 1.458-.365 1.556-5.64 1.512a387 387 0 0 1-9.97-.245" style="fill:#00ac45" transform="translate(28.01 -21.305)"/></svg>