<svg xmlns="http://www.w3.org/2000/svg" xml:space="preserve" width="1087.559" height="1089.905" viewBox="0 0 287.75 288.371"><path d="m49.118 339.406-4.374-.153 3.81-.103 3.81-.104-5.08-.21c-25.457-1.052-51.675-9.512-72.57-23.417l-1.448-.964-.733-5.37c-1.218-8.936-1.793-15.37-2.27-25.407l-.135-2.823 7.349.102c7.134.1 15.343-.223 21.407-.84l2.966-.302 2.82 1.63c50.52 29.2 117.125 6.776 140.064-47.156 25.013-58.81-11.556-126.34-74.026-136.7-7.09-1.177-8.675-1.296-17.244-1.301l-8.495-.006 2.991-3.374c3.79-4.273 10.6-11.37 14.352-14.956 1.996-1.907 2.893-2.962 2.893-3.4 0-1.302-14.423-13.9-23.175-20.242l-2.834-2.054 1.363-.2c.75-.11 3.839-.301 6.866-.424l5.503-.223-4.092-.153c-2.656-.1-.972-.153 4.798-.153 5.597 0 7.426.056 4.938.153l-3.95.153 5.362.2c74.24 2.765 136.02 65.382 137.356 139.218l.061 3.386.166-3.95c.113-2.69.165-1.111.165 4.938 0 6.05-.053 7.628-.165 4.94l-.166-3.952-.06 3.387c-1.337 73.835-63.117 136.452-137.357 139.218l-5.363.2 3.951.146 3.952.146-4.516.136c-2.484.075-6.484.067-8.89-.016m-90.17-36.025c-9.023-7.792-26.769-28.325-23.636-27.348 2.481.773 17.242 3.26 21.943 3.697 3.14.292 2.85-.196 3.07 5.148.218 5.336.548 9.82 1.186 16.1.24 2.375.398 4.436.349 4.58-.05.143-1.36-.837-2.912-2.177m12.915-32.47-1.76-.1.152-3.021c.25-4.959.672-10.737 1.01-13.808l.318-2.886 2.022 2.745c3.894 5.285 9.065 11.045 13.104 14.597l2.568 2.258-1.76.178c-1.828.186-12.583.21-15.654.036m-15.314-1.237c-9.305-1.25-17.714-2.888-26-5.063l-1.025-.269 1.065-3.314c2.232-6.95 5.302-14.708 8.473-21.422l1.621-3.431 7.157 3.594c3.936 1.977 8.772 4.278 10.746 5.113 3.127 1.323 3.572 1.593 3.461 2.095-.43 1.935-1.415 12.864-1.713 18.991l-.195 4.022-.878-.035c-.483-.019-1.703-.145-2.712-.281m-35.412-18.452c-4.153-9.697-8.3-24.159-9.627-33.566l-.196-1.393.716.546 4.626 3.54c2.15 1.646 6.132 4.491 8.849 6.323 2.716 1.832 5.042 3.42 5.168 3.53s-.657 2.102-1.742 4.425c-2.394 5.128-4.509 10.139-6.112 14.479l-1.199 3.245zm36.541-19.14c-3.743-1.756-10.032-4.995-11.235-5.788-.428-.282 3.516-7.107 7.104-12.293 1.846-2.669 2.145-2.984 2.276-2.399.082.37.338 1.709.568 2.974.963 5.299 3.472 13.735 5.345 17.97.39.881.62 1.599.513 1.595-.108-.004-2.165-.93-4.571-2.059m-25.118-14.24c-7.504-5.054-18.626-13.711-18.626-14.5 0-.88 19.397-19.289 20.325-19.289.124 0 .96 1.016 1.86 2.258 2.258 3.12 7.465 9.657 10.078 12.652 1.262 1.447 2.092 2.63 1.98 2.822-.106.182-1.048 1.537-2.092 3.012-2.068 2.918-5.42 8.15-8.004 12.488-1.96 3.291-1.526 3.247-5.52.557m18.743-32.436c-4.543-5.679-7.006-9.114-6.718-9.37 1.214-1.08 13.671-9.137 13.85-8.959.038.038-.175.89-.474 1.89-1.253 4.202-3.064 14.591-3.12 17.909-.049 2.798-.162 2.75-3.538-1.47m-41.318 2.277c.015-6.87 2.315-21.124 4.953-30.69 1.288-4.67.978-4.699 3.474.32 2.108 4.24 4.897 9.323 7.456 13.592l1.422 2.373-.846.731c-6.607 5.712-9.316 8.145-12.582 11.299l-3.88 3.746zm24.842-26.272c-3.855-6.677-7.99-15.11-11.473-23.401l-.373-.889 3.731-1.293c7.85-2.721 24.596-7.005 25.71-6.578.231.089.503 1.135.722 2.778.657 4.949 3.187 17.573 4.128 20.601.109.352-.501.835-2.476 1.96-4.803 2.737-11.523 6.978-15.252 9.625-2.414 1.715-1.948 1.993-4.717-2.803m33.343-22.712c-.492-2.53-1.09-5.932-1.328-7.562-.239-1.63-.49-3.23-.56-3.557-.144-.674 2.807-1.056 11.716-1.517 5.258-.272 4.988-.48 2.639 2.023-3.588 3.822-7.52 8.86-10.225 13.1l-1.348 2.112zm-36.907-19.023c1.114-2.902 11.59-16.56 17.7-23.074l2.083-2.221.028 9.722c.015 5.347.112 10.058.215 10.469.157.625.082.77-.451.878-7.104 1.445-12.599 2.675-15.772 3.531-2.707.73-3.9.949-3.803.695m33.638-6.8c-.51-1.605-.156-24.87.39-25.755.508-.821 25.971 4.295 25.971 5.218 0 .058-.694 2.458-1.542 5.333s-1.999 7.104-2.557 9.398a357 357 0 0 1-1.144 4.62c-.11.382-.95.476-5.698.636-5.28.177-10.583.529-13.795.914-1.27.153-1.475.107-1.625-.365m36.804-2.48c0-.497 3.62-13.067 3.854-13.377.22-.294 12.797 4.939 12.797 5.323 0 .11-.921.56-2.046 1-3.266 1.274-8.092 3.604-11.33 5.469-2.953 1.7-3.275 1.857-3.275 1.586m22.577-21.879c-2.25-1.057-6.152-2.727-8.67-3.71-2.52-.984-4.583-1.922-4.587-2.084-.028-1.164 9.864-21.05 11.12-22.354.4-.414 19.884 13.948 19.91 14.675.004.116-.856 1.132-1.91 2.258-2.544 2.715-7.409 8.287-9.612 11.008-.974 1.203-1.858 2.174-1.965 2.158-.106-.015-2.035-.893-4.286-1.95m-28.81-10.556c-.243-.243-8.674-2.364-12.958-3.26-2.251-.47-4.399-.926-4.772-1.013-2.032-.471 19.047-11.134 26.704-13.509.533-.165.192.691-2.317 5.82-1.619 3.306-3.5 7.346-4.18 8.976-1.16 2.777-1.852 3.612-2.477 2.986" style="fill:#42af29" transform="translate(90.018 -51.103)"/></svg>