<svg xmlns="http://www.w3.org/2000/svg" xml:space="preserve" width="501.523" height="799.549" viewBox="0 0 132.695 211.547"><g style="fill:#000"><path d="M250.105 447.039v-42.013h86.651v84.025h-86.651z" style="fill:#ca0050;fill-opacity:1;stroke-width:1.31289" transform="matrix(.26458 0 0 .26458 7.468 7.121)"/><path d="M112.252 297.37v-42.013h86.651v84.025h-86.651z" style="fill:#ffac00;fill-opacity:1;stroke-width:1.31289" transform="matrix(.26458 0 0 .26458 7.468 7.121)"/><path d="M387.959 274.394V-26.914h85.338v602.616h-85.338zM250.105 634.125v-89.933h86.651v179.866h-86.651ZM112.252 483.8V393.21h86.651V574.39h-86.651Zm137.853-223.19v-90.59h86.651v181.179h-86.651Zm-137.853-149.67V20.35h86.651v181.18h-86.651Zm-140.48 360.388V170.019h86.652v602.616h-86.651Z" style="fill:#0c002e;fill-opacity:1;stroke-width:1.31289" transform="matrix(.26458 0 0 .26458 7.468 7.121)"/></g></svg>