<svg xmlns="http://www.w3.org/2000/svg" xml:space="preserve" width="640.4" height="333.621" viewBox="0 0 169.439 88.27"><g style="fill:#000"><path d="m26.588 15.625 1.751.456c-.34-.655-.596-1.212-.911-1.732-.195-.321-.159-.526.088-.793.461-.498.883-1.032 1.321-1.551l-.064-.129c-.539.139-1.092.238-1.613.428-.549.2-.894.125-1.147-.447-.201-.453-.511-.858-.866-1.434-.134.7-.281 1.246-.333 1.8-.053.575-.279.891-.871 1.011-.557.113-1.091.34-1.801.57l1.882.808c-.381.249-.704.468-1.036.67-.085.052-.225.104-.299.069-.616-.287-1.269-.527-1.818-.914-.519-.366-.387-1.031.229-1.282a23 23 0 0 1 2.247-.752c.349-.101.496-.272.541-.628.075-.587.197-1.169.313-1.751.038-.192.093-.388.181-.561.351-.692.939-.741 1.378-.103.326.474.637.964.897 1.476.215.422.466.5.905.357a14 14 0 0 1 2.033-.526c.293-.05.622.115.935.183-.084.312-.089.682-.267.924-.468.637-1.001 1.228-1.53 1.818-.223.249-.273.449-.091.755.33.556.654 1.125.891 1.724.11.279.129.728-.027.939s-.6.332-.888.291c-.581-.083-1.2-.209-1.69-.504-.276-.166-.327-.705-.48-1.077l.141-.095z" style="fill:#d45500" transform="translate(-20.625 -55.476)scale(6.22549)"/><path d="M35.622 76.903c-.56 3.86-1.09 7.501-1.65 11.367H26.97c.722-5.814 1.407-11.436 2.123-17.051.367-2.889.734-5.771 1.189-8.647 1.357-8.486 8.423-15.328 16.597-16.13C59.173 45.24 67.06 56.06 62.18 67.433c-4.532 10.564-15.24 14.493-26.57 9.469zm20.432-15.16c.044-4.656-3.343-8.086-8.006-8.092-5.621-.013-10.57 4.911-10.552 10.502.019 4.57 3.524 7.975 8.205 7.956 5.41-.019 10.297-4.918 10.353-10.372zM.012 70.347l7.409-3.96c.722 1.184 1.282 2.254 1.986 3.22 2.004 2.745 5.186 3.081 7.943.902 2.553-2.017 2.709-3.966.268-6.904-2.073-2.496-4.295-4.88-6.537-7.24-3.399-3.586-5.335-7.651-3.28-12.501 2.222-5.254 6.362-8.249 12.114-8.853 5.473-.572 9.202 1.993 12.065 6.83-2.26 1.724-4.526 3.442-6.78 5.16-1.138-1.213-1.985-2.907-3.156-3.18-1.83-.424-4.264-.511-5.758.392-2.204 1.338-.828 3.318.529 4.806 2.11 2.322 4.171 4.706 6.412 6.891 3.785 3.698 5.41 8.019 3.71 13.117-1.842 5.529-5.764 9.046-11.498 10.223C7.31 80.918 2.602 78.204 0 70.34zM97.38 78.416H90.15c.63-4.831 1.339-9.45 1.8-14.095.38-3.841-.23-7.495-3.867-9.743-2.944-1.818-7.564-1.152-10.682 1.507-3.107 2.646-4.732 5.97-3.624 10.153 1.413 5.336 7.166 7.44 12.501 4.601.965-.517 1.874-1.14 3.107-1.905-.225 1.55-.418 2.764-.573 3.972-.685 5.335-1.575 6.17-6.848 6.412-11.4.536-18.49-8.666-15.097-19.579 2.608-8.38 10.814-13.97 19.604-13.347 7.34.523 13.155 6.443 12.856 13.801-.243 6.02-1.252 12.003-1.949 18.216zM129.222 54.678c4.595-5.03 8.492-9.301 12.526-13.721 1.768 4.557 2.229 8.398-2.067 11.58-1.936 1.431-3.393 3.51-5.154 5.39 4.843 6.811 9.562 13.46 14.717 20.706-3.269 0-6.002.168-8.691-.1-.853-.08-1.774-1.188-2.353-2.035-3.138-4.607-6.176-9.282-9.837-14.823-.697 4.868-1.593 8.76-1.724 12.675-.112 3.574-1.507 4.769-4.862 4.24-1.071-.168-2.18-.112-3.648-.18.896-7.11 1.743-13.97 2.633-20.825.53-4.109 1.351-8.199 1.612-12.32.169-2.683 1.19-4.358 3.48-5.578 1.75-.934 3.375-2.104 5.66-3.555-.772 6.294-1.476 11.996-2.279 18.54zM117.898 54.404c-1.32 0-2.21.05-3.088-.006-2.627-.169-3.903 1.101-4.22 3.66-.71 5.66-1.744 11.293-2.173 16.97-.224 2.97-1.233 3.991-4.065 3.58-1.077-.155-2.192-.024-3.748-.024.685-5.516 1.307-10.69 1.967-15.857.268-2.11.56-4.214.922-6.306 1.07-6.275 4.656-9.27 11.062-9.295 1.12-.006 2.241.025 3.356.069.199.006.398.174.797.355-.25 2.122-.505 4.301-.803 6.86z"/><path fill="#fff" d="M56.054 61.744c-.056 5.453-4.943 10.353-10.353 10.371-4.675.019-8.186-3.386-8.205-7.956-.019-5.59 4.924-10.515 10.552-10.502 4.657.006 8.05 3.436 8.006 8.093z"/></g></svg>