<svg xmlns="http://www.w3.org/2000/svg" xml:space="preserve" width="400" height="355.5" viewBox="0 0 105.833 94.059"><path d="M64.03 148.431v-46.963h11.376v93.927H64.03zm23.547 0v-46.963h11.377v93.927H87.577zm23.548 0v-46.963h11.377v93.927h-11.377zm23.283 0v-46.963h23.548v38.1H146.05v17.727h11.906v38.1h-23.548Z" style="fill:#fefefe" transform="translate(-52.123 -101.335)"/><path d="M75.536 148.431c0-25.902.03-36.46.069-23.46.038 12.999.038 34.192 0 47.095-.038 12.904-.07 2.268-.07-23.635m11.906 0c0-25.902.031-36.46.069-23.46s.038 34.192 0 47.095c-.038 12.904-.07 2.268-.07-23.635m23.548 0c0-25.902.03-36.46.069-23.46.038 12.999.038 34.192 0 47.095-.038 12.904-.07 2.268-.07-23.635" style="fill:#feeeb5" transform="translate(-52.123 -101.335)"/><path d="M99.084 148.431c0-25.902.03-36.46.069-23.46.038 12.999.038 34.192 0 47.095-.038 12.904-.07 2.268-.07-23.635m-35.19-5.82c0-22.702.03-31.95.069-20.551.038 11.398.038 29.972 0 41.275s-.07 1.977-.07-20.725" style="fill:#fee794" transform="translate(-52.123 -101.335)"/><path d="M122.631 148.431c0-25.902.032-36.46.07-23.46.037 12.999.037 34.192 0 47.095-.039 12.904-.07 2.268-.07-23.635m-58.754 41.01c0-3.2.039-4.474.085-2.829s.047 4.265 0 5.82c-.047 1.557-.085.211-.085-2.99" style="fill:#fde077" transform="translate(-52.123 -101.335)"/><path d="M134.273 148.431c0-25.902.031-36.46.07-23.46.037 12.999.037 34.192 0 47.095-.039 12.904-.07 2.268-.07-23.635m11.9 8.536c-.072-.186-.1-4.147-.06-8.803l.07-8.464h11.641v17.462l-5.761.072c-4.485.055-5.79-.004-5.89-.267m11.519-8.536v-8.599h-11.377v17.198h11.377z" style="fill:#fdd549" transform="translate(-52.123 -101.335)"/><path d="m75.736 148.365.066-47.03.067 46.898.068 46.897h11.109l.068-46.897.068-46.898.065 47.03.065 47.03H75.671zm29.104 46.832 5.754-.077.068-46.892.068-46.893.065 47.03.065 47.03-5.887-.06-5.887-.062zm20.624 0c1.556-.046 4.176-.046 5.82 0 1.646.047.373.085-2.829.085s-4.547-.038-2.991-.084" style="fill:#fdcd23" transform="translate(-52.123 -101.335)"/><path d="M75.935 148.299v-46.831h11.113v93.662H75.935zm23.284 0v-46.831h11.377v93.662H99.219zm23.548 0v-46.831h11.377v93.662h-11.377zm-70.644-5.689v-41.142h11.642v82.285H52.123zm94.192 5.821v-8.599h11.377v17.198h-11.377z" style="fill:#fdcb16" transform="translate(-52.123 -101.335)"/><path d="M52.123 189.574v-5.82h11.642v11.64H52.123z" style="fill:#e41b20" transform="translate(-52.123 -101.335)"/></svg>