<svg xmlns="http://www.w3.org/2000/svg" xml:space="preserve" width="450" height="450"><path d="M225 450C100.523 450 0 349.477 0 225S100.523 0 225 0s225 100.523 225 225c0 124.342-100.523 225-225 225"/><path d="M370.305 216.358h-44.139v66.612h44.139c18.436 0 33.508-15.206 33.508-33.508s-15.072-33.104-33.508-33.104M109.913 249.865c0 51.405 41.851 93.257 93.257 93.257s93.257-41.851 93.257-93.257-41.851-93.257-93.257-93.257-93.257 41.852-93.257 93.257" style="fill:#fff100" transform="translate(-25 -25)"/></svg>