<svg xmlns="http://www.w3.org/2000/svg" xml:space="preserve" width="511.758" height="496.524" viewBox="0 0 135.403 131.372"><path d="M77.71 259.32a1015 1015 0 0 0-5.357-2.305c-.108-.042.508-1.742 1.369-3.778s1.475-3.822 1.363-3.968c-.112-.147-1.491-1.994-3.064-4.104a1837 1837 0 0 0-2.934-3.93c-.041-.051-1.814.112-3.94.362-4.664.55-4.041 1.266-4.89-5.62-.84-6.833-1.289-5.821 2.795-6.3 1.878-.22 3.661-.454 3.964-.52.429-.093 1-1.174 2.595-4.91l2.046-4.79-2.214-2.955c-1.217-1.625-2.294-3.09-2.394-3.255-.14-.234 7.41-6.213 9.226-7.307.163-.098 1.293 1.184 2.636 2.99 2.732 3.674 1.804 3.393 8.413 2.544l4.454-.572 1.46-3.44c.803-1.892 1.553-3.538 1.666-3.66.154-.164 10.609 4.047 11.069 4.459.046.04-.57 1.605-1.367 3.474-.799 1.87-1.491 3.539-1.54 3.709-.141.497 6.09 8.555 6.616 8.555.254 0 1.87-.185 3.59-.41 1.722-.226 3.321-.374 3.556-.33.369.072 2.081 11.457 1.773 11.79-.036.04-1.818.296-3.96.571s-3.933.54-3.978.59-.991 2.221-2.102 4.824l-2.02 4.733 2.202 2.94c1.211 1.617 2.284 3.076 2.384 3.242.112.187-1.648 1.673-4.613 3.893l-4.793 3.592-2.371-3.1a269 269 0 0 0-2.462-3.19c-.05-.05-2.415.18-5.256.511l-5.166.603-1.539 3.57c-1.866 4.329-1.046 4.16-7.216 1.492m16.453-16.336c8.71-4.305 8.703-16.471-.01-20.778-8.224-4.064-18.03 3.174-16.487 12.17 1.326 7.733 9.567 12.033 16.497 8.608m-70.964-5.822c-.005-.182-.18-2.058-.39-4.168-.209-2.11-.384-4.091-.388-4.403-.006-.402-.295-.684-1-.973-.546-.223-2.855-1.177-5.132-2.12l-4.139-1.715-3.005 2.508c-1.652 1.379-3.31 2.73-3.684 3.002l-.68.494-5.353-5.357-5.352-5.358 3.02-3.665 3.021-3.666-1.706-4.124c-.938-2.268-1.888-4.57-2.11-5.116-.288-.708-.567-.994-.97-.998-.312-.003-2.234-.178-4.271-.389-2.038-.21-3.913-.387-4.168-.391-.43-.007-.463-.55-.463-7.638v-7.63l4.681-.447c2.575-.245 4.724-.489 4.777-.541.126-.127 4.018-9.463 4.103-9.843.036-.162-1.287-1.934-2.94-3.939l-3.006-3.644 5.387-5.384 5.387-5.384 3.656 3.025c3.396 2.811 3.706 3.007 4.359 2.758 1.896-.72 9.204-3.78 9.355-3.916.095-.085.306-1.643.469-3.462s.367-3.933.453-4.697l.157-1.389h15.217l.328 3.903c.527 6.28-.134 5.373 5.672 7.785 4.175 1.735 5.06 2.02 5.415 1.742a434 434 0 0 0 3.711-3.065l3.286-2.732 5.369 5.364c4.511 4.507 5.32 5.43 5.058 5.775a289 289 0 0 1-2.701 3.321 442 442 0 0 0-2.722 3.337c-.3.383 3.134 9.554 3.876 10.353.1.108 2.291.396 4.868.64l4.685.445v15.21l-2.05.185c-1.128.102-3.284.32-4.792.486l-2.742.3-2.087 5.027a634 634 0 0 0-2.087 5.06c0 .017 1.367 1.684 3.039 3.704l3.039 3.672-5.395 5.397-5.394 5.398-2.34-1.965a587 587 0 0 0-3.671-3.057l-1.33-1.093-5.017 2.068c-5.833 2.405-5.166 1.497-5.69 7.738l-.328 3.902h-7.639c-5.93 0-7.64-.074-7.646-.33m12.575-25.193c15.485-4.126 19.73-24.354 7.173-34.184-12.454-9.75-30.592-1.588-31.564 14.204-.802 13.023 11.791 23.338 24.391 19.98m54.114-25.858c-.176-1.5-.4-3.317-.497-4.039l-.175-1.312-4.826-2.07-4.825-2.07-3.197 2.414c-1.758 1.328-3.229 2.373-3.269 2.324-.938-1.157-7.03-9.444-7.03-9.563 0-.092 1.43-1.247 3.177-2.567 2.67-2.016 3.158-2.493 3.053-2.985-.069-.322-.326-2.43-.572-4.686-.595-5.463-.245-4.928-4.416-6.73l-3.573-1.543.917-2.147c1.93-4.52 3.867-8.895 3.938-8.895.04 0 1.712.702 3.716 1.56l3.642 1.558 4.216-3.174 4.217-3.175-.148-.964c-.528-3.43-.762-6.718-.49-6.886.404-.25 11.392-1.477 11.576-1.293.082.081.336 1.798.565 3.814.497 4.371-.002 3.807 5.428 6.135 5.331 2.286 4.298 2.332 7.881-.353 3.692-2.766 2.84-3.058 6.882 2.354 4.117 5.515 4.079 4.598.311 7.399l-3.125 2.324.469 4.016c.258 2.208.541 4.558.63 5.222l.16 1.207 3.62 1.552c1.992.854 3.65 1.572 3.687 1.594.104.064-4.464 10.55-4.711 10.816-.126.136-1.714-.406-3.72-1.267-1.925-.828-3.656-1.444-3.848-1.37-.282.108-7.385 5.336-8.094 5.957-.109.096-.02 1.597.197 3.336.217 1.74.395 3.527.396 3.972l.002.81-5.225.592c-2.874.325-5.54.652-5.922.725l-.696.134zm5.52-15.574c8.935-2.06 11.99-13.314 5.336-19.66-6.815-6.5-17.954-2.637-19.404 6.728-1.217 7.864 6.256 14.733 14.068 12.932" style="fill:#000" transform="translate(13.57 -129.85)"/></svg>