<svg xmlns="http://www.w3.org/2000/svg" xml:space="preserve" width="74.162" height="74.122" viewBox="0 0 19.622 19.611"><path d="m-55.13 254.311-.67-.67.088-3.32.087-3.32.514-.375c.282-.206.83-.375 1.215-.375h.703l.437.484.438.484v6.666l-.697.549c-.908.714-1.3.691-2.114-.123m5.723.329-.662-.331-.084-.879-.085-.879.456-.504.457-.504h1.423l.438.483c.83.917.416 2.453-.753 2.791l-.529.154zm5.424.026c-.893-.506-.918-.694-.922-6.853l-.004-5.978.483-.438.484-.438h1.614l.363.438.363.437v12.136l-.625.506c-.714.579-1.014.611-1.756.19m5.062-.232-.697-.549V236.5l.697-.549c.904-.71 1.301-.691 2.093.101l.65.65v16.981l-.65.65c-.792.792-1.19.811-2.093.1m-10.864-5.424-.416-.416v-12.333l.411-.34c.226-.188.779-.342 1.228-.342h.817l.36.492.359.491v12.032l-.416.416c-.228.229-.756.416-1.172.416s-.943-.187-1.171-.416m-5.326-5.25-.514-.376-.087-3.32-.088-3.32.67-.67c.815-.814 1.207-.837 2.115-.123l.697.549v6.758l-.484.438c-.593.537-1.622.565-2.31.063m10.79-5.33-.588-.411v-.76c0-.827.489-1.46 1.337-1.728l.54-.172.65.425c.356.234.662.63.679.882.126 1.84-1.218 2.745-2.618 1.765" style="fill:teal" transform="translate(55.8 -235.36)"/></svg>