<svg xmlns="http://www.w3.org/2000/svg" width="80" height="80" viewBox="0 0 40 40"><path fill="#fff" d="m63.266-77.509-13.88-24.04a11.04 11.04 0 0 0-9.53-5.5h-27.76c-3.92 0-7.57 2.11-9.53 5.5l-13.88 24.04a11.02 11.02 0 0 0 0 11l13.88 24.04c1.96 3.4 5.61 5.5 9.53 5.5h27.76c3.92 0 7.57-2.1 9.53-5.5l13.88-24.04c1.96-3.39 1.96-7.61 0-11m-22.41 19.25a19.9 19.9 0 0 1-13.83 6.59 19.866 19.866 0 0 1-14.44-5.11c-8.2-7.38-8.87-20.06-1.48-28.27.57-.63 1.18-1.23 1.83-1.78a2.997 2.997 0 1 1 3.9 4.55c-.44.38-.87.8-1.27 1.25-5.17 5.74-4.71 14.62 1.04 19.79a13.86 13.86 0 0 0 10.11 3.58c3.74-.2 7.18-1.84 9.68-4.62 5.17-5.74 4.7-14.62-1.04-19.79a3.003 3.003 0 0 1 4.02-4.46c8.2 7.38 8.86 20.06 1.48 28.27m-17.88-14.78v-16.96c0-1.66 1.35-3 3-3 1.66 0 3 1.34 3 3v16.96c0 1.65-1.34 3-3 3-.82 0-1.58-.34-2.12-.88a3 3 0 0 1-.88-2.12m15.12 89.74-6.2-10.5a6.4 6.4 0 0 0-2.27-2.27l-.16-.28h-.34c-.87-.42-1.84-.65-2.83-.65h-12.63c-1 0-1.96.23-2.83.65h-.44l-.22.37c-.85.54-1.58 1.28-2.11 2.18l-6.2 10.5a6.5 6.5 0 0 0-.9 3.12l-.1.18.1.18a6.5 6.5 0 0 0 .9 3.12l6.2 10.5c.53.9 1.26 1.64 2.12 2.18l.21.36h.42c.88.43 1.84.66 2.85.66h12.63c1 0 1.97-.23 2.85-.66h.32l.15-.26c.93-.55 1.72-1.32 2.28-2.28l6.2-10.5a6.5 6.5 0 0 0 0-6.6m-22.44 8.37c2.66 2.4 6.78 2.18 9.17-.48 2.4-2.66 2.18-6.78-.48-9.17-.62-.56-.67-1.51-.11-2.12.55-.62 1.5-.67 2.12-.11 3.89 3.5 4.2 9.52.7 13.41a9.47 9.47 0 0 1-7.06 3.14 9.46 9.46 0 0 1-6.35-2.44c-3.89-3.5-4.21-9.52-.7-13.41.27-.3.56-.59.86-.85.63-.54 1.58-.46 2.12.16.54.63.47 1.58-.16 2.12-.21.18-.41.37-.6.58-2.39 2.66-2.17 6.78.49 9.17m2.84-6.57v-7c0-.83.68-1.5 1.5-1.5.83 0 1.5.67 1.5 1.5v7c0 .83-.67 1.5-1.5 1.5-.82 0-1.5-.67-1.5-1.5m14.63 66.96c-.07-.77-.3-1.52-.7-2.21l-4.33-7.5c-.4-.7-.94-1.28-1.58-1.73l-.3-.52h-.6a5.4 5.4 0 0 0-2.28-.5h-8.66c-.8 0-1.57.17-2.28.5h-.6l-.3.52c-.64.45-1.18 1.03-1.58 1.73l-4.33 7.5c-.4.69-.63 1.44-.7 2.21l-.3.52.29.51c.07.78.3 1.56.71 2.26l4.33 7.5c.41.71.97 1.31 1.62 1.76l.26.45h.51c.73.35 1.54.54 2.37.54h8.66c.83 0 1.64-.19 2.37-.54h.51l.26-.45c.65-.45 1.21-1.05 1.62-1.76l4.33-7.5c.41-.7.64-1.48.71-2.26l.29-.51zm-17.09 4.05c1.82 1.63 4.63 1.49 6.26-.33a4.43 4.43 0 0 0-.33-6.26c-.46-.42-.49-1.13-.08-1.59.42-.46 1.13-.5 1.59-.08 2.74 2.46 2.96 6.7.5 9.44a6.67 6.67 0 0 1-4.62 2.2c-.12.01-.24.01-.36.01-1.65 0-3.23-.6-4.46-1.72a6.64 6.64 0 0 1-2.21-4.61c-.09-1.79.52-3.5 1.71-4.83.19-.21.39-.41.61-.59.47-.41 1.18-.35 1.59.12.4.47.35 1.18-.12 1.58a4.413 4.413 0 0 0-1.54 3.6 4.4 4.4 0 0 0 1.46 3.06m1.84-3.66v-5.73c0-.62.51-1.12 1.13-1.12s1.12.5 1.12 1.12v5.73c0 .62-.5 1.13-1.12 1.13s-1.13-.51-1.13-1.13m7.76 43.78c-.05-.49-.21-.97-.47-1.41l-2.05-3.49c-.26-.43-.6-.8-1.01-1.08l-.18-.3h-.34a3.3 3.3 0 0 0-1.49-.35h-4.22c-.52 0-1.03.12-1.49.35h-.26l-.13.22c-.46.28-.85.68-1.13 1.16l-2.06 3.49c-.29.49-.45 1.02-.48 1.57l-.11.19.11.19c.02.56.18 1.11.48 1.61l2.06 3.49c.29.49.69.9 1.17 1.19l.09.15h.18c.48.26 1.02.39 1.57.39h4.22c.56 0 1.1-.14 1.58-.39h.25l.14-.23c.42-.28.78-.66 1.05-1.11l2.05-3.49c.27-.45.43-.95.47-1.46l.2-.34zm-9.27 2.26c.48.44 1.08.66 1.74.62.64-.03 1.24-.32 1.67-.8.43-.47.65-1.09.62-1.74-.04-.64-.32-1.23-.8-1.67a.58.58 0 0 1-.04-.84c.22-.25.6-.27.84-.05a3.58 3.58 0 0 1 1.19 2.5c.06.96-.27 1.89-.92 2.61-.64.72-1.53 1.14-2.5 1.19h-.19c-.89 0-1.75-.32-2.41-.92a3.6 3.6 0 0 1-1.2-2.5c-.05-.97.28-1.89.93-2.61.1-.11.21-.22.32-.32.25-.22.63-.19.85.06s.19.63-.06.84c-.08.07-.15.14-.22.22-.43.48-.65 1.1-.62 1.74.04.65.32 1.24.8 1.67m1.01-1.89v-2.95c0-.33.27-.6.6-.6.34 0 .6.27.6.6v2.95c0 .33-.26.6-.6.6-.33 0-.6-.27-.6-.6"/><path fill="#bae0bd" d="m29.626 3.931-.16-.28h-19.07l-.22.37-9.21 15.8-.1.18.1.18 9.22 15.8.21.36h19.07l.15-.26 9.38-16.08zm-2.57 22.67a9.47 9.47 0 0 1-7.06 3.14 9.46 9.46 0 0 1-6.35-2.44c-3.89-3.5-4.21-9.52-.7-13.41.27-.3.56-.59.86-.85.63-.54 1.58-.46 2.12.16.54.63.47 1.58-.16 2.12-.21.18-.41.37-.6.58-2.39 2.66-2.17 6.78.49 9.17 2.66 2.4 6.78 2.18 9.17-.48 2.4-2.66 2.18-6.78-.48-9.17-.62-.56-.67-1.51-.11-2.12.55-.62 1.5-.67 2.12-.11 3.89 3.5 4.2 9.52.7 13.41m-5.56-15.1v7c0 .83-.67 1.5-1.5 1.5-.82 0-1.5-.67-1.5-1.5v-7c0-.83.68-1.5 1.5-1.5.83 0 1.5.67 1.5 1.5"/><path fill="#5e9c76" d="m38.096 16.701-6.2-10.5a6.4 6.4 0 0 0-2.27-2.27c-.16-.11-.33-.2-.5-.28-.87-.42-1.84-.65-2.83-.65h-12.63a6.5 6.5 0 0 0-3.49 1.02c-.85.54-1.58 1.28-2.11 2.18l-6.2 10.5a6.5 6.5 0 0 0-.9 3.12v.36a6.5 6.5 0 0 0 .9 3.12l6.2 10.5c.53.9 1.26 1.64 2.12 2.18.2.14.41.25.63.36.88.43 1.84.66 2.85.66h12.63c1 0 1.97-.23 2.85-.66.16-.08.32-.16.47-.26.93-.55 1.72-1.32 2.28-2.28l6.2-10.5a6.5 6.5 0 0 0 0-6.6m-11.8 19.3h-12.63c-1.94 0-3.75-1.04-4.74-2.7l-6.2-10.5a5.51 5.51 0 0 1 0-5.6l6.2-10.5c.99-1.66 2.8-2.7 4.74-2.7h12.63c1.94 0 3.75 1.04 4.74 2.7l6.2 10.5a5.55 5.55 0 0 1 0 5.6l-6.2 10.5c-.99 1.66-2.8 2.7-4.74 2.7"/></svg>