<svg xmlns="http://www.w3.org/2000/svg" xml:space="preserve" width="159" height="79.062" viewBox="0 0 42.069 20.918"><g style="fill:none"><path fill="#f8fdff" d="M118.155 0c-13.688 0-26.171 7.665-38.326 21.025C67.893 7.446 55.08 0 40.845 0 17.192 0 0 16.864 0 39.531s17.302 39.422 40.845 39.422c14.564 0 25.734-6.79 38.327-20.368 12.154 13.578 24.528 20.477 38.983 20.477 23.653 0 40.845-16.645 40.845-39.421C159 16.864 141.808 0 118.155 0M41.064 55.08c-9.965 0-15.988-6.57-15.988-15.33S30.99 24.2 41.064 24.2c8.432 0 15.33 6.79 22.777 15.988-7.008 8.541-14.455 14.893-22.777 14.893m76.434 0c-8.322 0-15.331-6.57-22.777-15.33 7.665-9.198 14.236-15.55 22.777-15.55 9.965 0 15.878 6.9 15.878 15.55s-5.913 15.33-15.878 15.33" style="fill:#1a1a1a" transform="scale(.26458)"/><path fill="#20a8c9" d="m25.67 19.383 4.201-5.012c-1.68-.493-3.216-2-4.81-3.883l-4.085 4.984a17.9 17.9 0 0 0 4.694 3.91"/><path fill="#20a7c9" d="M21.121 5.563a19.8 19.8 0 0 0-4.664-3.998l-4.201 5.07c1.593.55 3.013 1.999 4.52 3.824l.173.116z"/></g></svg>