<svg xmlns="http://www.w3.org/2000/svg" xml:space="preserve" width="1280.267" height="1280.577" viewBox="0 0 338.737 338.819"><path d="M-40.342 364.223c-9.819-2.38-12.972-8.261-12.972-24.194v-9.125h-6.209c-7.812 0-6.992.414-14.867-7.504-7.54-7.584-7.146-6.78-7.146-14.567v-6.15l-9.26-.006c-16.345-.009-22.695-3.765-24.34-14.398-2.007-12.964 6.103-19.448 24.34-19.458l9.26-.005v-11.289l-9.26-.005q-27.352-.014-24.34-19.458c1.645-10.633 7.995-14.389 24.34-14.398l9.26-.005v-11.289l-9.26-.005q-27.352-.013-24.34-19.458c1.645-10.633 7.995-14.389 24.34-14.398l9.26-.005v-11.289l-9.26-.005q-27.352-.013-24.34-19.458c1.645-10.633 7.995-14.39 24.34-14.398l9.26-.005v-11.289l-9.26-.005q-27.352-.014-24.34-19.458c1.645-10.633 7.995-14.39 24.34-14.398l9.26-.006v-6.208c0-7.813-.414-6.993 7.504-14.867 7.584-7.541 6.78-7.147 14.567-7.147h6.15V50.85c0-18.256 6.362-26.355 19.243-24.5 10.815 1.559 14.625 7.94 14.625 24.5v9.124H-8.16V50.85c0-18.256 6.362-26.355 19.243-24.5 10.815 1.559 14.624 7.94 14.624 24.5v9.124h11.289V50.85c0-18.256 6.362-26.355 19.242-24.5 10.816 1.559 14.625 7.94 14.625 24.5v9.124h11.289V50.85c0-18.256 6.361-26.355 19.242-24.5 10.815 1.559 14.624 7.94 14.624 24.5v9.124h11.289V50.85c0-18.256 6.362-26.355 19.243-24.5 10.815 1.559 14.624 7.94 14.624 24.5v9.124h6.15c7.787 0 6.984-.394 14.567 7.147 7.919 7.874 7.505 7.054 7.505 14.867v6.208h9.124c16.464 0 22.826 3.744 24.476 14.404 2.01 12.985-6.136 19.463-24.476 19.463h-9.124v11.289h9.124c18.319 0 26.487 6.473 24.486 19.403-1.658 10.709-8.015 14.464-24.486 14.464h-9.124v11.288h9.124c18.319 0 26.487 6.473 24.486 19.403-1.658 10.71-8.015 14.464-24.486 14.464h-9.124v11.289h9.124c18.319 0 26.487 6.473 24.486 19.403-1.658 10.709-8.015 14.464-24.486 14.464h-9.124v11.289h9.124c18.319 0 26.487 6.472 24.486 19.402-1.658 10.71-8.015 14.464-24.486 14.464h-9.124v6.15c0 7.788.394 6.984-7.147 14.568-7.874 7.918-7.054 7.504-14.867 7.504h-6.208v9.125c0 16.52-3.82 22.942-14.564 24.49-12.946 1.866-19.303-6.2-19.303-24.49v-9.125H116.02v9.125c0 16.52-3.819 22.942-14.564 24.49-12.946 1.866-19.302-6.2-19.302-24.49v-9.125H70.864v9.125c0 16.52-3.82 22.942-14.564 24.49-12.947 1.866-19.303-6.2-19.303-24.49v-9.125H25.708v9.125c0 16.52-3.819 22.942-14.564 24.49-12.946 1.866-19.303-6.2-19.303-24.49v-9.125h-11.288v9.125c0 18.925-7.38 27.47-20.895 24.194zm7.053-11.683c2.383-1.78 2.366-1.698 2.48-12.136l.105-9.5h-11.321v8.973c0 9.298.126 10.278 1.523 11.798 1.732 1.887 5.275 2.312 7.213.865m45.155 0c2.383-1.78 2.367-1.698 2.481-12.136l.105-9.5H3.13v8.973c0 9.298.126 10.278 1.522 11.798 1.733 1.887 5.275 2.312 7.213.865m45.156 0c2.383-1.78 2.366-1.698 2.48-12.136l.105-9.5H48.286v8.973c0 9.298.126 10.278 1.523 11.798 1.733 1.887 5.275 2.312 7.213.865m45.155 0c2.383-1.78 2.367-1.698 2.481-12.136l.105-9.5H93.44v8.973c0 9.298.127 10.278 1.523 11.798 1.733 1.887 5.275 2.312 7.213.865m45.156 0c2.383-1.78 2.366-1.698 2.48-12.136l.105-9.5h-11.321v8.973c0 9.298.126 10.278 1.523 11.798 1.733 1.887 5.275 2.312 7.213.865m26.8-36.887 3.975-3.963V79.209l-3.963-3.975-3.963-3.974h-232.48l-3.975 3.963-3.974 3.963v232.481l3.963 3.974 3.963 3.975h232.48Zm-229.853-7.92c-.644-.317-1.597-1.134-2.117-1.816l-.945-1.24V86.128l.727-.974c.4-.536 1.166-1.301 1.702-1.701l.974-.728 108.837-.09c121.3-.1 110.216-.329 112.235 2.317l.95 1.246v218.48l-.95 1.245c-2.014 2.64 8.974 2.405-111.816 2.396-99.668-.007-108.52-.055-109.597-.586m211.25-112.295v-101.6h-203.2v203.2h203.2Zm-183.62-68.203c-12.527-4.13-10.098-21.877 2.998-21.911 11.971-.03 15.55 16.253 4.666 21.235-2.293 1.05-5.636 1.345-7.664.676m-53.446 158.514v-5.645h-9.007c-12.019 0-14.473 1.257-13.42 6.87.724 3.858 2.33 4.389 13.343 4.406l9.084.013zm290.906 4.74c3.405-2.544 3.405-6.936 0-9.48-.917-.687-1.516-.734-10.473-.833l-9.5-.104v11.354l9.5-.105c8.957-.098 9.556-.146 10.473-.831m-290.906-49.896v-5.644h-9.007c-12.019 0-14.473 1.256-13.42 6.869.724 3.859 2.33 4.39 13.343 4.406l9.084.014zm290.906 4.741c3.405-2.544 3.405-6.937 0-9.481-.917-.686-1.516-.734-10.473-.832l-9.5-.104v11.353l9.5-.104c8.957-.099 9.556-.146 10.473-.832m-290.906-49.896v-5.645h-9.007c-12.019 0-14.473 1.256-13.42 6.87.724 3.858 2.33 4.389 13.343 4.405l9.084.014zm290.906 4.74c3.405-2.544 3.405-6.937 0-9.48-.917-.687-1.516-.734-10.473-.833l-9.5-.104v11.354l9.5-.105c8.957-.098 9.556-.146 10.473-.831m-290.906-49.896v-5.644h-9.007c-12.019 0-14.473 1.256-13.42 6.869.724 3.859 2.33 4.39 13.343 4.406l9.084.014zm290.906 4.741c3.405-2.544 3.405-6.937 0-9.481-.917-.686-1.516-.734-10.473-.832l-9.5-.105v11.354l9.5-.104c8.957-.099 9.556-.146 10.473-.832m-290.906-49.896v-5.645h-9.007c-12.019 0-14.473 1.256-13.42 6.87.724 3.858 2.33 4.389 13.343 4.405l9.084.014zm290.906 4.74c3.405-2.544 3.405-6.937 0-9.481-.917-.686-1.516-.733-10.473-.832l-9.5-.104v11.354l9.5-.105c8.957-.098 9.556-.146 10.473-.832M-30.808 50.471c-.115-10.467-.091-10.35-2.534-12.174-1.366-1.02-4.712-1.02-6.078 0-2.442 1.824-2.418 1.707-2.533 12.174l-.105 9.5h11.354zm45.155 0c-.115-10.467-.09-10.35-2.533-12.174-1.366-1.02-4.712-1.02-6.078 0-2.443 1.824-2.419 1.707-2.534 12.174l-.104 9.5h11.354zm45.156 0c-.115-10.467-.091-10.35-2.534-12.174-1.366-1.02-4.712-1.02-6.078 0-2.442 1.824-2.418 1.707-2.533 12.174l-.104 9.5h11.353zm45.155 0c-.115-10.467-.09-10.35-2.533-12.174-1.366-1.02-4.712-1.02-6.078 0-2.443 1.824-2.419 1.707-2.534 12.174l-.104 9.5h11.354zm45.156 0c-.115-10.467-.09-10.35-2.533-12.174-1.366-1.02-4.713-1.02-6.079 0-2.442 1.824-2.418 1.707-2.533 12.174l-.104 9.5h11.353z" style="fill:#000" transform="translate(115.435 -26.09)"/></svg>