<svg xmlns="http://www.w3.org/2000/svg" xml:space="preserve" width="23.934" height="23.964" viewBox="0 0 159.8 143.305"><path fill="#287eff" d="M129.3-8.347H77.1v78.8h82.7v-48.3c0-16.8-13.6-30.5-30.5-30.5" class="st0"/><path fill="#0258ed" d="M159.8 70.453H77.1v81.2h52.2c16.8 0 30.5-13.7 30.5-30.5z" class="st1"/><path fill="#0246cc" d="M77.1-8.347H30.5c-16.8 0-30.5 13.7-30.5 30.5v99c0 16.8 13.7 30.5 30.5 30.5h46.6z" class="st2"/><path fill="#fff" d="M53.3 87.953h-22c-3.4 0-6.1-2.7-6.1-6.1v-22c0-3.4 2.7-6.1 6.1-6.1h22c3.4 0 6.1 2.7 6.1 6.1v22c0 3.4-2.8 6.1-6.1 6.1M102.4 15.653h22c3.4 0 6.1 2.7 6.1 6.1v22c0 3.4-2.7 6.1-6.1 6.1h-22c-3.4 0-6.1-2.7-6.1-6.1v-22c0-3.4 2.8-6.1 6.1-6.1M102.4 93.853h22c3.4 0 6.1 2.7 6.1 6.1v22c0 3.4-2.7 6.1-6.1 6.1h-22c-3.4 0-6.1-2.7-6.1-6.1v-22c0-3.4 2.8-6.1 6.1-6.1" class="st3"/><path fill="#fff" d="m43.476 74.502 66.04-47.759 4.746 6.564-66.04 47.759z" class="st3"/><path fill="#fff" d="m43.226 66.727 4.973-6.395 64.02 49.788-4.972 6.394z" class="st3"/></svg>