<svg xmlns="http://www.w3.org/2000/svg" xml:space="preserve" id="Layer_1" x="0" y="0" version="1.1" viewBox="0 0 27.7 40.4"><style>.st1{fill:#e8b121}</style><path d="M.9 12.6C-.5 15 .3 18 2.7 19.4l17.2 10.2c2.4 1.4 5.4.6 6.8-1.8s.6-5.4-1.8-6.8L7.7 10.8c-2.4-1.4-5.4-.6-6.8 1.8" style="fill:#2a57a3"/><path d="M.8 17.5c1.4 2.4 4.4 3.2 6.8 1.8l17.3-10c2.4-1.4 3.2-4.4 1.8-6.8S22.3-.7 19.9.7l-17.3 10C.2 12.1-.6 15.1.8 17.5M26.8 22.9c-1.4-2.4-4.4-3.2-6.8-1.8L2.6 31C.2 32.4-.6 35.4.8 37.8s4.4 3.2 6.8 1.8l17.3-10c2.4-1.3 3.3-4.4 1.9-6.7" class="st1"/></svg>